<svg width="20" height="20" viewBox="0 0 20 20" fill="none" xmlns="http://www.w3.org/2000/svg">
<path id="Vector" d="M11.6165 13.9968C11.5773 13.958 11.5244 13.9363 11.4693 13.9363C11.4142 13.9363 11.3613 13.958 11.3222 13.9968L8.29598 17.023C6.89487 18.4241 4.53017 18.5725 2.98322 17.023C1.43366 15.4734 1.58211 13.1113 2.98322 11.7102L6.00941 8.68402C6.09014 8.60328 6.09014 8.47047 6.00941 8.38973L4.9729 7.35322C4.93374 7.31445 4.88086 7.2927 4.82576 7.2927C4.77065 7.2927 4.71777 7.31445 4.67861 7.35322L1.65242 10.3794C-0.550808 12.5826 -0.550808 16.1479 1.65242 18.3486C3.85566 20.5492 7.42093 20.5518 9.62156 18.3486L12.6478 15.3224C12.7285 15.2416 12.7285 15.1088 12.6478 15.0281L11.6165 13.9968ZM18.3512 1.65242C16.1479 -0.550808 12.5826 -0.550808 10.382 1.65242L7.35322 4.67861C7.31445 4.71777 7.2927 4.77065 7.2927 4.82576C7.2927 4.88086 7.31445 4.93374 7.35322 4.9729L8.38713 6.0068C8.46786 6.08754 8.60068 6.08754 8.68141 6.0068L11.7076 2.98061C13.1087 1.5795 15.4734 1.43106 17.0204 2.98061C18.5699 4.53017 18.4215 6.89226 17.0204 8.29337L13.9942 11.3196C13.9554 11.3587 13.9336 11.4116 13.9336 11.4667C13.9336 11.5218 13.9554 11.5747 13.9942 11.6138L15.0307 12.6504C15.1114 12.7311 15.2442 12.7311 15.325 12.6504L18.3512 9.62417C20.5518 7.42094 20.5518 3.85566 18.3512 1.65242ZM12.5566 6.36359C12.5174 6.32482 12.4646 6.30307 12.4095 6.30307C12.3544 6.30307 12.3015 6.32482 12.2623 6.36359L6.36359 12.2597C6.32482 12.2989 6.30307 12.3517 6.30307 12.4069C6.30307 12.462 6.32482 12.5148 6.36359 12.554L7.39489 13.5853C7.47563 13.666 7.60844 13.666 7.68918 13.5853L13.5853 7.68918C13.666 7.60845 13.666 7.47563 13.5853 7.39489L12.5566 6.36359Z" fill="#40AE97"/>
</svg>
