<svg width="27" height="27" viewBox="0 0 27 27" fill="none" xmlns="http://www.w3.org/2000/svg">
<g id="Group 876">
<circle id="Ellipse 27" cx="13.5" cy="13.5" r="13" stroke="white"/>
<g id="Vector">
<mask id="path-2-inside-1_1125_17577" fill="white">
<path fill-rule="evenodd" clip-rule="evenodd" d="M13.3613 7.26893C13.4793 7.26893 13.5925 7.31582 13.676 7.39928C13.7594 7.48274 13.8063 7.59593 13.8063 7.71396V18.2104L16.6064 15.4094C16.69 15.3258 16.8033 15.2788 16.9215 15.2788C17.0397 15.2788 17.153 15.3258 17.2366 15.4094C17.3201 15.4929 17.3671 15.6063 17.3671 15.7244C17.3671 15.8426 17.3201 15.9559 17.2366 16.0395L13.6763 19.5997C13.635 19.6412 13.5859 19.6741 13.5318 19.6965C13.4778 19.7189 13.4198 19.7305 13.3613 19.7305C13.3027 19.7305 13.2448 19.7189 13.1907 19.6965C13.1366 19.6741 13.0875 19.6412 13.0462 19.5997L9.48598 16.0395C9.4446 15.9981 9.41178 15.949 9.38939 15.895C9.36699 15.8409 9.35547 15.783 9.35547 15.7244C9.35547 15.6063 9.40241 15.4929 9.48598 15.4094C9.56954 15.3258 9.68288 15.2788 9.80106 15.2788C9.91923 15.2788 10.0326 15.3258 10.1161 15.4094L12.9162 18.2104V7.71396C12.9162 7.59593 12.9631 7.48274 13.0466 7.39928C13.13 7.31582 13.2432 7.26893 13.3613 7.26893Z"/>
</mask>
<path fill-rule="evenodd" clip-rule="evenodd" d="M13.3613 7.26893C13.4793 7.26893 13.5925 7.31582 13.676 7.39928C13.7594 7.48274 13.8063 7.59593 13.8063 7.71396V18.2104L16.6064 15.4094C16.69 15.3258 16.8033 15.2788 16.9215 15.2788C17.0397 15.2788 17.153 15.3258 17.2366 15.4094C17.3201 15.4929 17.3671 15.6063 17.3671 15.7244C17.3671 15.8426 17.3201 15.9559 17.2366 16.0395L13.6763 19.5997C13.635 19.6412 13.5859 19.6741 13.5318 19.6965C13.4778 19.7189 13.4198 19.7305 13.3613 19.7305C13.3027 19.7305 13.2448 19.7189 13.1907 19.6965C13.1366 19.6741 13.0875 19.6412 13.0462 19.5997L9.48598 16.0395C9.4446 15.9981 9.41178 15.949 9.38939 15.895C9.36699 15.8409 9.35547 15.783 9.35547 15.7244C9.35547 15.6063 9.40241 15.4929 9.48598 15.4094C9.56954 15.3258 9.68288 15.2788 9.80106 15.2788C9.91923 15.2788 10.0326 15.3258 10.1161 15.4094L12.9162 18.2104V7.71396C12.9162 7.59593 12.9631 7.48274 13.0466 7.39928C13.13 7.31582 13.2432 7.26893 13.3613 7.26893Z" fill="white"/>
<path d="M13.8063 18.2104L14.5135 18.9173L12.8063 20.6251V18.2104H13.8063ZM16.6064 15.4094L15.8992 14.7024L15.8993 14.7022L16.6064 15.4094ZM17.3671 15.7244H18.3671H17.3671ZM17.2366 16.0395L17.9437 16.7466V16.7466L17.2366 16.0395ZM13.6763 19.5997L12.9683 18.8935L12.9692 18.8926L13.6763 19.5997ZM13.3613 19.7305V20.7305V19.7305ZM13.0462 19.5997L13.7533 18.8926L13.7542 18.8935L13.0462 19.5997ZM9.48598 16.0395L8.77887 16.7466L9.48598 16.0395ZM9.35547 15.7244H10.3555H9.35547ZM10.1161 15.4094L10.8232 14.7022L10.8234 14.7024L10.1161 15.4094ZM12.9162 18.2104H13.9162V20.6251L12.209 18.9173L12.9162 18.2104ZM13.3613 6.26893C13.7445 6.26893 14.1121 6.42117 14.3831 6.69217L12.9688 8.10638C13.0729 8.21046 13.2141 8.26893 13.3613 8.26893V6.26893ZM14.3831 6.69217C14.6541 6.96317 14.8063 7.33072 14.8063 7.71396H12.8063C12.8063 7.86114 12.8648 8.0023 12.9688 8.10638L14.3831 6.69217ZM14.8063 7.71396V18.2104H12.8063V7.71396H14.8063ZM13.0991 17.5034L15.8992 14.7024L17.3136 16.1164L14.5135 18.9173L13.0991 17.5034ZM15.8993 14.7022C16.1704 14.4311 16.5381 14.2788 16.9215 14.2788V16.2788C17.0685 16.2788 17.2095 16.2204 17.3135 16.1165L15.8993 14.7022ZM16.9215 14.2788C17.3049 14.2788 17.6726 14.4311 17.9437 14.7022L16.5295 16.1165C16.6334 16.2204 16.7744 16.2788 16.9215 16.2788V14.2788ZM17.9437 14.7022C18.2148 14.9734 18.3671 15.341 18.3671 15.7244H16.3671C16.3671 15.8715 16.4255 16.0125 16.5295 16.1165L17.9437 14.7022ZM18.3671 15.7244C18.3671 16.1078 18.2148 16.4755 17.9437 16.7466L16.5295 15.3324C16.4255 15.4364 16.3671 15.5774 16.3671 15.7244H18.3671ZM17.9437 16.7466L14.3835 20.3068L12.9692 18.8926L16.5295 15.3324L17.9437 16.7466ZM14.3843 20.3059C14.2501 20.4405 14.0907 20.5473 13.9151 20.6201L13.1486 18.7728C13.0811 18.8008 13.0199 18.8418 12.9683 18.8935L14.3843 20.3059ZM13.9151 20.6201C13.7395 20.693 13.5513 20.7305 13.3613 20.7305V18.7305C13.2883 18.7305 13.216 18.7449 13.1486 18.7728L13.9151 20.6201ZM13.3613 20.7305C13.1712 20.7305 12.983 20.693 12.8074 20.6201L13.574 18.7728C13.5066 18.7449 13.4343 18.7305 13.3613 18.7305V20.7305ZM12.8074 20.6201C12.6319 20.5473 12.4724 20.4405 12.3382 20.3059L13.7542 18.8935C13.7026 18.8418 13.6414 18.8008 13.574 18.7728L12.8074 20.6201ZM12.3391 20.3068L8.77887 16.7466L10.1931 15.3324L13.7533 18.8926L12.3391 20.3068ZM8.77887 16.7466C8.64464 16.6124 8.53816 16.453 8.46551 16.2776L10.3133 15.5123C10.2854 15.445 10.2446 15.3839 10.1931 15.3324L8.77887 16.7466ZM8.46551 16.2776C8.39286 16.1023 8.35547 15.9143 8.35547 15.7244H10.3555C10.3555 15.6516 10.3411 15.5795 10.3133 15.5123L8.46551 16.2776ZM8.35547 15.7244C8.35547 15.341 8.50777 14.9734 8.77887 14.7022L10.1931 16.1165C10.2971 16.0125 10.3555 15.8715 10.3555 15.7244H8.35547ZM8.77887 14.7022C9.04997 14.4311 9.41766 14.2788 9.80106 14.2788V16.2788C9.9481 16.2788 10.0891 16.2204 10.1931 16.1165L8.77887 14.7022ZM9.80106 14.2788C10.1845 14.2788 10.5521 14.4311 10.8232 14.7022L9.40903 16.1165C9.513 16.2204 9.65402 16.2788 9.80106 16.2788V14.2788ZM10.8234 14.7024L13.6235 17.5034L12.209 18.9173L9.40892 16.1164L10.8234 14.7024ZM11.9162 18.2104V7.71396H13.9162V18.2104H11.9162ZM11.9162 7.71396C11.9162 7.33071 12.0685 6.96316 12.3395 6.69217L13.7537 8.10638C13.8578 8.00231 13.9162 7.86115 13.9162 7.71396H11.9162ZM12.3395 6.69217C12.6105 6.42117 12.978 6.26893 13.3613 6.26893V8.26893C13.5085 8.26893 13.6496 8.21046 13.7537 8.10638L12.3395 6.69217Z" fill="white" mask="url(#path-2-inside-1_1125_17577)"/>
</g>
</g>
</svg>
