<svg width="16" height="20" viewBox="0 0 16 20" fill="none" xmlns="http://www.w3.org/2000/svg">
<g id="Group">
<path id="Vector" fill-rule="evenodd" clip-rule="evenodd" d="M7.99937 19.4988L8.74676 18.6567C9.59484 17.6854 10.3576 16.7639 11.0363 15.8874L11.5966 15.1483C13.9359 11.9964 15.1062 9.49483 15.1062 7.64588C15.1062 3.69924 11.9247 0.5 7.99937 0.5C4.07405 0.5 0.892578 3.69924 0.892578 7.64588C0.892578 9.49483 2.06283 11.9964 4.40215 15.1483L4.9624 15.8874C5.93063 17.128 6.94362 18.3318 7.99937 19.4988Z" stroke="black" stroke-linecap="round" stroke-linejoin="round"/>
<path id="Vector_2" d="M7.99632 10.5683C9.63172 10.5683 10.9575 9.24256 10.9575 7.60716C10.9575 5.97175 9.63172 4.646 7.99632 4.646C6.36091 4.646 5.03516 5.97175 5.03516 7.60716C5.03516 9.24256 6.36091 10.5683 7.99632 10.5683Z" stroke="black" stroke-linecap="round" stroke-linejoin="round"/>
</g>
</svg>
