<svg width="20" height="16" viewBox="0 0 20 16" fill="none" xmlns="http://www.w3.org/2000/svg">
<path id="Vector" d="M17.1095 0.5H2.89054C2.25653 0.5 1.64849 0.748953 1.20017 1.19209C0.75186 1.63523 0.5 2.23626 0.5 2.86295V13.1371C0.5 13.7637 0.75186 14.3648 1.20017 14.8079C1.64849 15.251 2.25653 15.5 2.89054 15.5H17.1095C17.7435 15.5 18.3515 15.251 18.7998 14.8079C19.2481 14.3648 19.5 13.7637 19.5 13.1371V2.86295C19.5 2.23626 19.2481 1.63523 18.7998 1.19209C18.3515 0.748953 17.7435 0.5 17.1095 0.5ZM2.89054 1.44518H17.1095C17.4714 1.44415 17.8202 1.5794 18.0848 1.82345C18.3495 2.06749 18.5102 2.40201 18.5342 2.75898C16.1724 4.00662 13.801 5.2448 11.4295 6.49244C11.1087 6.69117 10.7693 6.85893 10.416 6.99338C10.1386 7.0475 9.85269 7.04261 9.57736 6.97905C9.30202 6.91549 9.04353 6.79472 8.81907 6.62476C7.46125 5.91588 6.10342 5.19754 4.75516 4.48866C3.66507 3.92155 2.55586 3.34499 1.46578 2.76843C1.48795 2.40994 1.64777 2.07334 1.91257 1.82741C2.17737 1.58147 2.52718 1.44475 2.89054 1.44518ZM18.5438 13.1371C18.5438 13.5131 18.3927 13.8737 18.1237 14.1396C17.8547 14.4054 17.4899 14.5548 17.1095 14.5548H2.89054C2.51013 14.5548 2.14531 14.4054 1.87632 14.1396C1.60733 13.8737 1.45622 13.5131 1.45622 13.1371V3.84121C3.71288 5.01323 5.95999 6.20416 8.21666 7.38563C8.61985 7.62997 9.05389 7.82065 9.50755 7.95274C10.1715 8.05945 10.852 7.92156 11.42 7.56522C12.8065 6.84688 14.1834 6.11909 15.57 5.40076C16.5644 4.87146 17.5493 4.36106 18.5438 3.84121V13.1371Z" fill="black"/>
</svg>
