<svg width="18" height="18" viewBox="0 0 18 18" fill="none" xmlns="http://www.w3.org/2000/svg">
<path id="Vector" d="M7.55699 4.18835L7.55654 4.18684C7.39119 3.63523 7.27749 3.06944 7.21691 2.49677L7.2169 2.49666C7.12464 1.62638 6.37171 1 5.52568 1H2.71924C1.69559 1 0.918434 1.88347 1.00686 2.88621L1.00687 2.88628C1.66805 10.3709 7.62912 16.3315 15.1137 16.9931L15.1138 16.9931C16.1159 17.0814 17 16.3075 17 15.2828V12.7802C17 12.2449 16.8687 11.7735 16.6029 11.4141C16.3321 11.0481 15.9428 10.8293 15.5033 10.7827L15.5031 10.7827C14.9305 10.7222 14.3647 10.6086 13.813 10.4434L13.8117 10.443C13.3805 10.3152 12.9228 10.3064 12.487 10.4176C12.0515 10.5288 11.6542 10.7556 11.3372 11.0742C11.337 11.0744 11.3368 11.0746 11.3366 11.0748L10.4041 12.0072C8.57638 10.9438 7.05615 9.4236 5.99278 7.59584L6.92515 6.66347C6.92532 6.6633 6.9255 6.66312 6.92567 6.66295C7.24434 6.34593 7.47132 5.94861 7.58257 5.51309C7.69398 5.07695 7.68466 4.61919 7.55699 4.18835Z" stroke="white" stroke-linecap="round" stroke-linejoin="round"/>
</svg>
