<svg width="20" height="20" viewBox="0 0 20 20" fill="none" xmlns="http://www.w3.org/2000/svg">
<path id="Telegram" d="M7.47553 18.6351C7.42521 18.6869 7.36357 18.7262 7.29545 18.7501C7.29046 18.7518 7.2858 18.7525 7.28127 18.7532C7.2781 18.7536 7.27499 18.7541 7.27188 18.7549C7.20094 18.778 7.12514 18.7819 7.0522 18.7662L7.47553 18.6351ZM7.47553 18.6351C7.47856 18.6316 7.48265 18.6297 7.48667 18.6278C7.49019 18.6262 7.49364 18.6246 7.49628 18.6219M7.47553 18.6351L7.49628 18.6219M7.28491 18.8032C7.20654 18.8282 7.12298 18.8324 7.0425 18.8152H7.03371L7.0339 18.8143C7.01829 18.8111 7.00687 18.8031 7.00254 18.8L7.00215 18.7997L6.99901 18.7975C6.91005 18.7702 6.83019 18.7191 6.76804 18.6497M7.28491 18.8032L6.80517 18.6163M7.28491 18.8032L7.28559 18.8031L7.2908 18.8023C7.29541 18.8016 7.30284 18.8004 7.31126 18.7976L7.31201 18.7973C7.38622 18.7713 7.45349 18.7287 7.50871 18.6727C7.51045 18.6719 7.5132 18.6706 7.51582 18.6691C7.51994 18.6668 7.52584 18.6631 7.53163 18.6573L7.53168 18.6573L7.53333 18.6555L10.3431 15.5539L14.452 18.7358C14.452 18.7358 14.4521 18.7359 14.4521 18.7359L14.4522 18.7359L14.4828 18.6964M7.28491 18.8032L19.4271 1.37915C19.6038 1.53982 19.7383 1.74205 19.8179 1.96795C19.9049 2.21469 19.9233 2.48043 19.8712 2.73681M6.76804 18.6497C6.768 18.6497 6.76796 18.6497 6.76792 18.6496L6.80517 18.6163M6.76804 18.6497C6.76808 18.6498 6.76813 18.6498 6.76817 18.6499L6.80517 18.6163M6.76804 18.6497C6.7271 18.6047 6.6946 18.5526 6.67208 18.496M6.80517 18.6163C6.76756 18.5749 6.73784 18.5269 6.71749 18.4748M6.67208 18.496C6.67248 18.4965 6.67226 18.4962 6.67209 18.4958L6.71749 18.4748M6.67208 18.496C6.67161 18.4954 6.67026 18.4937 6.66689 18.4895L6.66671 18.4892C6.66233 18.4838 6.65274 18.4718 6.64786 18.4551M6.67208 18.496C6.67169 18.495 6.6713 18.494 6.67091 18.493L6.71749 18.4748M6.71749 18.4748L6.64786 18.4551M6.64786 18.4551C6.64782 18.455 6.64777 18.4548 6.64772 18.4546L6.6958 18.4409L6.64794 18.4554L6.64786 18.4551ZM14.4828 18.6964C14.7345 18.8935 15.0447 19 15.3643 19C16.0564 19 16.6532 18.5154 16.7956 17.8394L19.8712 2.73681M14.4828 18.6964L10.3371 15.486M14.4828 18.6964L10.3371 15.486M19.8712 2.73681L19.9202 2.74678C19.9741 2.48153 19.9551 2.2066 19.8651 1.95132C19.7751 1.69603 19.6174 1.46997 19.409 1.29725L19.3271 1.22936V1.2349M19.8712 2.73681L19.3271 1.2349M19.3271 1.2349C19.1343 1.09617 18.9111 1.00449 18.6754 0.967907C18.4056 0.926021 18.1294 0.957938 17.8762 1.06027L0.983224 7.87988L0.982937 7.88C0.700573 7.99604 0.460177 8.19521 0.293664 8.45107C0.12715 8.70694 0.0423945 9.00739 0.0506479 9.31256C0.0589013 9.61773 0.159774 9.91316 0.339874 10.1597C0.519974 10.4061 0.770783 10.592 1.05901 10.6926L1.05909 10.6927L4.68006 11.9496L19.3271 1.2349ZM7.49628 18.6219L10.3371 15.486M7.49628 18.6219L10.3371 15.486M7.05051 16.1879L7.67734 13.1406C7.67734 13.1406 7.67734 13.1406 7.67734 13.1406L7.67736 13.1405L7.72633 13.1506C7.74472 13.0602 7.78932 12.9772 7.85456 12.912L7.05051 16.1879ZM7.05051 16.1879L5.72889 11.8171L12.3008 8.39415L7.81922 12.8767M18.8972 2.5411L15.8228 17.6397L15.8226 17.6397C15.8067 17.7168 15.7712 17.7885 15.7195 17.8479C15.6678 17.9073 15.6017 17.9524 15.5276 17.9789L15.5265 17.9794C15.4544 18.0071 15.3763 18.0156 15.2999 18.004C15.2235 17.9924 15.1514 17.9612 15.0908 17.9133L15.0904 17.913L10.5996 14.4348L10.5996 14.4348C10.4957 14.3546 10.3655 14.3165 10.2348 14.3281C10.1042 14.3397 9.98272 14.4001 9.89463 14.4973C9.89462 14.4973 9.89461 14.4973 9.89461 14.4973L8.04038 16.5408L8.6661 13.5034L15.4336 6.73496L15.4337 6.7349C15.5215 6.64682 15.5749 6.53025 15.5843 6.40624C15.5937 6.28223 15.5585 6.15894 15.485 6.05862C15.4115 5.9583 15.3045 5.88756 15.1835 5.85916C15.0624 5.83076 14.9351 5.84658 14.8247 5.90375L14.8246 5.90381L5.07297 10.9833L1.40022 9.70626L1.39947 9.70601C1.31143 9.67693 1.23463 9.62113 1.17978 9.54637C1.12492 9.47161 1.09474 9.38161 1.09342 9.2889L1.09345 9.2889L1.09338 9.28735C1.08915 9.1937 1.11417 9.10105 1.16497 9.02226C1.21578 8.94347 1.28984 8.88244 1.3769 8.84764L1.37706 8.84758L18.2672 2.02796L18.2681 2.02761C18.3461 1.99448 18.4317 1.98376 18.5155 1.99667C18.5992 2.00957 18.6777 2.04559 18.7421 2.10068L18.7421 2.10069L18.7432 2.10155C18.807 2.15322 18.8553 2.22162 18.8825 2.29912C18.9097 2.37662 18.9149 2.46016 18.8974 2.54042L18.8972 2.5411Z" fill="none" stroke="white" stroke-width="0.1"/>
</svg>
