<svg width="24" height="22" viewBox="0 0 24 22" fill="none" xmlns="http://www.w3.org/2000/svg">
<path id="Vector" d="M22.3189 1.17686V1.16029L22.4827 1.29605C22.7205 1.49311 22.9003 1.751 23.003 2.04224C23.1057 2.33347 23.1274 2.64712 23.0658 2.94973L23.0658 2.94975L19.6485 19.7303L19.6484 19.731C19.4805 20.5284 18.7765 21.1 17.9603 21.1C17.5829 21.1 17.2166 20.9742 16.9193 20.7415C16.9192 20.7415 16.9192 20.7415 16.9191 20.7414L12.3864 17.2313L9.29209 20.647L9.28877 20.6507L9.28868 20.6506C9.27835 20.661 9.26803 20.6674 9.26135 20.6711C9.26021 20.6718 9.25911 20.6724 9.25808 20.6729C9.19299 20.7373 9.1144 20.7864 9.02794 20.8167L9.02647 20.8173C9.0134 20.8216 9.0021 20.8234 8.99634 20.8243L8.99331 20.8247C8.90136 20.8535 8.8036 20.8585 8.7092 20.8391H8.70522L8.69551 20.8372C8.68081 20.8343 8.66903 20.8291 8.66057 20.8246C8.65424 20.8212 8.64893 20.8177 8.64558 20.8154C8.5418 20.7821 8.44866 20.7218 8.37582 20.6406M22.3189 1.17686L8.45008 20.5736M22.3189 1.17686C22.1158 1.04544 21.8866 0.957761 21.6461 0.920422C21.3383 0.872652 21.0233 0.909053 20.7346 1.02577L22.3189 1.17686ZM8.37582 20.6406C8.37574 20.6405 8.37566 20.6404 8.37558 20.6403L8.45008 20.5736M8.37582 20.6406C8.37591 20.6407 8.37599 20.6408 8.37607 20.6409L8.45008 20.5736M8.37582 20.6406C8.32827 20.5882 8.29023 20.5279 8.26338 20.4625M8.45008 20.5736C8.40829 20.5276 8.37527 20.4744 8.35265 20.4165M8.26338 20.4625L8.26379 20.463L8.26524 20.4648C8.26605 20.4659 8.26628 20.4662 8.26625 20.4661L8.26491 20.4641C8.26413 20.4629 8.26303 20.4609 8.26186 20.4584L8.35265 20.4165M8.26338 20.4625L8.26173 20.4605C8.25691 20.4545 8.24094 20.4352 8.23272 20.4073M8.26338 20.4625C8.26206 20.4593 8.26077 20.4561 8.25951 20.4529L8.35265 20.4165M8.35265 20.4165L8.23272 20.4073M8.23272 20.4073C8.23261 20.407 8.23251 20.4066 8.23241 20.4062L8.32856 20.3788L8.23284 20.4077L8.23272 20.4073ZM8.71447 17.6947L9.3756 14.4807C9.37561 14.4807 9.37562 14.4806 9.37563 14.4806L9.37565 14.4805L9.4736 14.5006C9.49402 14.4002 9.54358 14.308 9.61607 14.2356L8.71447 17.6947ZM8.71447 17.6947L7.30742 13.0414L14.3207 9.38858L9.54539 14.1649M6.05286 13.2008L6.10102 13.2175L6.13382 13.123L6.0381 13.152L6.05286 13.2008ZM21.8421 2.70346L18.4262 19.4796L18.426 19.4795C18.4098 19.5578 18.3737 19.6305 18.3213 19.6907C18.2689 19.751 18.2019 19.7968 18.1267 19.8237L18.1267 19.8236L18.1244 19.8245C18.0515 19.8526 17.9726 19.8612 17.8953 19.8494C17.8181 19.8377 17.7452 19.8061 17.6839 19.7576L17.6831 19.757L12.6934 15.8924L12.6932 15.8923C12.569 15.7964 12.4132 15.7509 12.2569 15.7647C12.1006 15.7786 11.9553 15.8509 11.8499 15.9671C11.8499 15.9671 11.8499 15.9672 11.8499 15.9672L9.89887 18.1173L10.5586 14.9147L18.0687 7.4036L18.0688 7.40349C18.1739 7.29811 18.2378 7.15865 18.249 7.01029C18.2603 6.86193 18.2181 6.71443 18.1302 6.59442C18.0422 6.4744 17.9143 6.38977 17.7694 6.35579C17.6246 6.32182 17.4723 6.34074 17.3402 6.40914L17.34 6.40926L6.52189 12.0443L2.45917 10.6316L2.45918 10.6316L2.45769 10.6311C2.36863 10.6017 2.29096 10.5453 2.23548 10.4697C2.18 10.3941 2.14947 10.303 2.14813 10.2093L2.14818 10.2093L2.14804 10.2062C2.14376 10.1113 2.1691 10.0175 2.22055 9.9377C2.272 9.85791 2.347 9.79611 2.43516 9.76087L2.43548 9.76074L21.2023 2.18339L21.2024 2.1834L21.204 2.1827C21.2831 2.14911 21.3699 2.13825 21.4548 2.15133C21.5397 2.16442 21.6192 2.20092 21.6845 2.25675L21.6844 2.25677L21.6866 2.25849C21.7511 2.31072 21.7999 2.37987 21.8274 2.4582C21.8549 2.53654 21.8601 2.62098 21.8424 2.70211L21.8421 2.70346Z" fill="none" fill-opacity="0.8" stroke="white" stroke-width="0.5"/>
</svg>
