<svg width="24" height="22" viewBox="0 0 24 22" fill="none" xmlns="http://www.w3.org/2000/svg">
<g id="Group 24">
<path id="Vector" d="M9.05702 6.00504C9.24152 6.01008 9.44617 6.02016 9.64075 6.45165C9.76979 6.73898 9.98654 7.26826 10.164 7.69975C10.3021 8.03547 10.415 8.31171 10.4432 8.36816C10.5078 8.49721 10.5481 8.64541 10.4634 8.81982L10.4352 8.87829C10.3774 9.01374 10.2992 9.13954 10.2033 9.25131C10.1546 9.30787 10.1065 9.365 10.0591 9.4227C9.97344 9.52754 9.88774 9.63038 9.81516 9.70296C9.68511 9.83201 9.55102 9.97113 9.70023 10.2292C9.85044 10.4873 10.3737 11.3362 11.1469 12.0207C11.7129 12.5303 12.3617 12.9394 13.0655 13.2305C13.136 13.2608 13.1935 13.286 13.2368 13.3071C13.4959 13.4362 13.6502 13.416 13.7994 13.2426C13.9496 13.0682 14.4476 12.4875 14.6231 12.2294C14.7924 11.9713 14.9658 12.0116 15.2058 12.1004C15.4457 12.1901 16.722 12.8162 16.9811 12.9442L17.1253 13.0148C17.3058 13.1005 17.4278 13.1599 17.4802 13.2466C17.5447 13.3565 17.5447 13.8717 17.331 14.4786C17.1112 15.0835 16.0536 15.6642 15.5748 15.7086L15.4387 15.7247C14.9991 15.7771 14.4426 15.8457 12.4585 15.0643C10.0128 14.1026 8.3987 11.7173 8.07306 11.2344C8.05568 11.2085 8.03787 11.183 8.01963 11.1577L8.01358 11.1497C7.86538 10.9511 6.95703 9.73623 6.95703 8.48208C6.95703 7.28238 7.54882 6.65732 7.818 6.37302L7.86538 6.32261C7.95251 6.22419 8.05896 6.14475 8.17812 6.08925C8.29728 6.03375 8.42658 6.00337 8.55799 6C8.7324 6 8.90782 6 9.05702 6.00504Z" fill="white" fill-opacity="0.8"/>
<path id="Vector_2" fill-rule="evenodd" clip-rule="evenodd" d="M1.06768 21.4376C1.04679 21.5128 1.04609 21.5922 1.06567 21.6677C1.08524 21.7432 1.1244 21.8123 1.17918 21.8678C1.23396 21.9234 1.30243 21.9635 1.37767 21.9842C1.45292 22.0048 1.53228 22.0053 1.60775 21.9854L6.71679 20.6502C8.33776 21.5282 10.152 21.9883 11.9955 21.9888H11.9999C18.0838 21.9888 23.0431 17.0572 23.0431 10.9966C23.047 9.55112 22.7632 8.11928 22.2084 6.78447C21.6537 5.44966 20.8389 4.23854 19.8116 3.22162C18.7862 2.19613 17.5681 1.38356 16.2275 0.83067C14.8869 0.27778 13.4501 -0.00450727 11.9999 5.44155e-05C5.91612 5.44155e-05 0.956787 4.93055 0.956787 10.9911C0.956787 12.9196 1.4647 14.8137 2.43172 16.4849L1.06768 21.4376ZM4.03641 16.9263C4.09504 16.7135 4.11073 16.4911 4.08255 16.2722C4.05437 16.0532 3.98289 15.842 3.87228 15.651C3.05178 14.2351 2.61987 12.6276 2.62025 10.9911C2.62025 5.85654 6.82658 1.66351 11.9999 1.66351C14.5173 1.66351 16.8661 2.63608 18.6383 4.40046C19.5103 5.26284 20.2018 6.29027 20.6725 7.42278C21.1432 8.55529 21.3836 9.77021 21.3796 10.9966C21.3796 16.1312 17.1733 20.3253 11.9999 20.3253H11.9944C10.4282 20.3245 8.88687 19.9335 7.50971 19.1875C7.13852 18.9866 6.70483 18.9342 6.29649 19.0411L3.23351 19.8407L4.03641 16.9263Z" fill="white" fill-opacity="0.8"/>
</g>
</svg>
