<svg width="121" height="35" viewBox="0 0 121 35" fill="none" xmlns="http://www.w3.org/2000/svg">
<g id="logo">
<g id="Group">
<g id="Group_2">
<path id="Vector" d="M52.4343 23.2813C51.6853 22.8542 51.0923 22.2747 50.6554 21.5426C50.2185 20.8105 50 20.0174 50 19.1327V18.8277H53.3394V19.1327C53.3394 19.5598 53.4955 19.9259 53.8075 20.2309C54.1196 20.5359 54.4942 20.6885 54.9311 20.6885H69.0689C69.5059 20.6885 69.8804 20.5359 70.1925 20.2309C70.5046 19.9259 70.6606 19.5598 70.6606 19.1327V15.5943C70.6606 15.1672 70.5046 14.8012 70.1925 14.4961C69.8804 14.1911 69.5059 14.0386 69.0689 14.0386H54.9311C54.026 14.0386 53.2146 13.8251 52.4655 13.398C51.7165 12.9709 51.1235 12.3914 50.6866 11.6593C50.2497 10.9272 50.0312 10.1341 50.0312 9.24946V5.71099C50.0312 4.82638 50.2497 4.03328 50.6866 3.30118C51.1235 2.56909 51.7165 1.98951 52.4655 1.56246C53.2146 1.1354 54.026 0.921875 54.9311 0.921875H69.0689C69.974 0.921875 70.8166 1.1354 71.5657 1.56246C72.3147 1.98951 72.9077 2.56909 73.3446 3.30118C73.7815 4.03328 74 4.82638 74 5.71099V6.01603H70.6294V5.71099C70.6294 5.28394 70.4733 4.91789 70.1613 4.61285C69.8492 4.30781 69.4746 4.15529 69.0377 4.15529H54.8999C54.4629 4.15529 54.0884 4.30781 53.7763 4.61285C53.4642 4.91789 53.3082 5.28394 53.3082 5.71099V9.24946C53.3082 9.67651 53.4642 10.0426 53.7763 10.3476C54.0884 10.6526 54.4629 10.8052 54.8999 10.8052H69.0377C69.9428 10.8052 70.7854 11.0187 71.5345 11.4457C72.2835 11.8728 72.8765 12.4524 73.3134 13.1845C73.7503 13.9166 73.9688 14.7097 73.9688 15.5943V19.1327C73.9688 20.0174 73.7503 20.8105 73.3134 21.5426C72.8765 22.2747 72.2835 22.8542 71.5345 23.2813C70.7854 23.7083 69.9428 23.9219 69.0377 23.9219H54.8999C53.9948 23.9219 53.1834 23.7083 52.4343 23.2813Z" fill="#40AE97"/>
<path id="Vector_2" d="M77 23.8914V5.69833C77 4.81606 77.2169 4.02505 77.6506 3.29489C78.0843 2.56473 78.673 1.98669 79.4165 1.56077C80.1601 1.13484 80.9656 0.921875 81.864 0.921875H95V4.17716H81.864C81.4303 4.17716 81.0585 4.32928 80.7487 4.63351C80.4389 4.93775 80.284 5.30282 80.284 5.72875V23.9219H77V23.8914Z" fill="#40AE97"/>
<path id="Vector_3" d="M98 32.9219V0.921875H116.304C117.172 0.921875 117.949 1.1342 118.667 1.55884C119.385 1.98349 119.953 2.55979 120.372 3.28775C120.791 4.01571 121 4.80434 121 5.68396V19.0299C121 19.9096 120.791 20.6982 120.372 21.4261C119.953 22.1541 119.385 22.7304 118.667 23.155C117.949 23.5797 117.172 23.792 116.304 23.792H101.2V32.8612H98V32.9219ZM102.756 20.6072H116.304C116.723 20.6072 117.082 20.4555 117.381 20.1522C117.68 19.8489 117.83 19.4849 117.83 19.0603V5.71429C117.83 5.28964 117.68 4.92567 117.381 4.62235C117.082 4.31903 116.723 4.16737 116.304 4.16737H102.756C102.337 4.16737 101.978 4.31903 101.679 4.62235C101.38 4.92567 101.2 5.28964 101.2 5.71429V19.0603C101.2 19.4849 101.35 19.8489 101.679 20.1522C101.978 20.4555 102.337 20.6072 102.756 20.6072Z" fill="#40AE97"/>
</g>
<g id="Group_3">
<path id="Vector_4" d="M51.7222 34.9219V34.3158H54.1667C54.25 34.3158 54.3056 34.2855 54.3611 34.2249C54.4167 34.1643 54.4444 34.1037 54.4444 34.0128V33.2249H51.8333C51.6944 33.2249 51.5556 33.1946 51.4167 33.1037C51.3056 33.0128 51.1944 32.9219 51.1111 32.7704C51.0278 32.6491 51 32.4976 51 32.3158V29.831C51 29.6795 51.0278 29.5279 51.1111 29.3764C51.1944 29.2552 51.2778 29.134 51.4167 29.0431C51.5278 28.9522 51.6667 28.9219 51.8333 28.9219H54.1667C54.3056 28.9219 54.4444 28.9522 54.5833 29.0431C54.6944 29.134 54.8056 29.2249 54.8889 29.3764C54.9722 29.5279 55 29.6491 55 29.831V33.9825C55 34.134 54.9722 34.2855 54.8889 34.437C54.8056 34.5885 54.7222 34.6795 54.5833 34.7704C54.4722 34.8613 54.3333 34.8916 54.1667 34.8916H51.7222V34.9219ZM51.8056 32.6491H54.1389C54.2222 32.6491 54.2778 32.6188 54.3333 32.5582C54.3889 32.4976 54.4167 32.437 54.4167 32.3461V29.8613C54.4167 29.7704 54.3889 29.7098 54.3333 29.6491C54.2778 29.5885 54.2222 29.5582 54.1389 29.5582H51.8056C51.7222 29.5582 51.6667 29.5885 51.6111 29.6491C51.5556 29.7098 51.5278 29.7704 51.5278 29.8613V32.3461C51.5278 32.437 51.5556 32.4976 51.6111 32.5582C51.6667 32.6188 51.7222 32.6491 51.8056 32.6491Z" fill="#40AE97"/>
<path id="Vector_5" d="M60 32.9219V29.7729C60 29.6311 60.0367 29.4893 60.1468 29.3474C60.2569 29.2056 60.367 29.1205 60.5505 29.0353C60.6972 28.9502 60.8807 28.9219 61.1009 28.9219H64V29.4893H61.1009C60.9908 29.4893 60.9174 29.5176 60.844 29.5744C60.7706 29.6311 60.7339 29.6878 60.7339 29.7729V32.9219H60Z" fill="#40AE97"/>
<path id="Vector_6" d="M68.5208 32.8092C68.3819 32.7247 68.2431 32.6402 68.1389 32.4993C68.0347 32.3585 68 32.2458 68 32.0768V29.7669C68 29.6261 68.0347 29.4853 68.1389 29.3444C68.2431 29.2036 68.3472 29.1191 68.5208 29.0346C68.6597 28.9501 68.8333 28.9219 69.0417 28.9219H71.9583C72.1319 28.9219 72.3056 28.9501 72.4792 29.0346C72.6181 29.1191 72.7569 29.2036 72.8611 29.3444C72.9653 29.4571 73 29.5979 73 29.7669V32.0768C73 32.2177 72.9653 32.3585 72.8611 32.4993C72.7569 32.612 72.6528 32.7247 72.4792 32.8092C72.3403 32.8937 72.1667 32.9219 71.9583 32.9219H69.0417C68.8681 32.9219 68.6944 32.8937 68.5208 32.8092ZM69.0417 32.3585H71.9583C72.0625 32.3585 72.1319 32.3303 72.2014 32.274C72.2708 32.2177 72.3056 32.1613 72.3056 32.0768V29.7669C72.3056 29.6824 72.2708 29.6261 72.2014 29.5698C72.1319 29.5134 72.0625 29.4853 71.9583 29.4853H69.0417C68.9375 29.4853 68.8681 29.5134 68.7986 29.5698C68.7292 29.6261 68.6944 29.6824 68.6944 29.7669V32.0768C68.6944 32.1613 68.7292 32.2177 68.7986 32.274C68.8681 32.3303 68.9375 32.3585 69.0417 32.3585Z" fill="#40AE97"/>
<path id="Vector_7" d="M78.4167 32.8084C78.3056 32.7233 78.1944 32.6382 78.1111 32.4963C78.0278 32.3829 78 32.241 78 32.0708V28.9219H78.5556V32.0708C78.5556 32.1559 78.5833 32.2127 78.6389 32.2694C78.6944 32.3261 78.75 32.3545 78.8333 32.3545H81.1667C81.25 32.3545 81.3056 32.3261 81.3611 32.2694C81.4167 32.2127 81.4444 32.1559 81.4444 32.0708V28.9219H82V32.0708C82 32.2127 81.9722 32.3545 81.8889 32.4963C81.8056 32.6382 81.7222 32.7233 81.5833 32.8084C81.4722 32.8935 81.3333 32.9219 81.1667 32.9219H78.8333C78.6667 32.9219 78.5556 32.8935 78.4167 32.8084Z" fill="#40AE97"/>
<path id="Vector_8" d="M87 34.8613V28.9219H90.9583C91.1319 28.9219 91.3056 28.9522 91.4792 29.0431C91.6181 29.134 91.7569 29.2249 91.8611 29.3764C91.9653 29.4976 92 29.6491 92 29.831V32.3158C92 32.4673 91.9653 32.6188 91.8611 32.7704C91.7569 32.8916 91.6528 33.0128 91.4792 33.1037C91.3403 33.1946 91.1667 33.2249 90.9583 33.2249H87.6944V34.9219H87V34.8613ZM88.007 32.5885H90.9236C91.0278 32.5885 91.0972 32.5582 91.1667 32.4976C91.2361 32.437 91.2708 32.3764 91.2708 32.2855V29.8007C91.2708 29.7098 91.2361 29.6492 91.1667 29.5885C91.0972 29.5279 91.0278 29.4976 90.9236 29.4976H88.007C87.9028 29.4976 87.8333 29.5279 87.7639 29.5885C87.6944 29.6492 87.6597 29.7098 87.6597 29.8007V32.2855C87.6597 32.3764 87.6944 32.437 87.7639 32.4976C87.8681 32.5582 87.9375 32.5885 88.007 32.5885Z" fill="#40AE97"/>
</g>
</g>
<g id="Group_4">
<path id="Vector (Stroke)" fill-rule="evenodd" clip-rule="evenodd" d="M5.83425 3.73955C4.12813 3.73955 2.73481 5.1751 2.73481 6.93293V28.9108C2.73481 30.6687 4.12813 32.1042 5.83425 32.1042H27.1658C28.8542 32.1042 30.2398 30.6849 30.2652 28.9014V6.93293C30.2652 5.17509 28.8719 3.73955 27.1658 3.73955H5.83425ZM0 6.93293C0 3.61894 2.61773 0.921875 5.83425 0.921875H27.1658C30.3823 0.921875 33 3.61894 33 6.93293V28.9195L32.9999 28.9282C32.9605 32.2128 30.3974 34.9219 27.1658 34.9219H5.83425C2.61773 34.9219 0 32.2248 0 28.9108V6.93293Z" fill="black"/>
<path id="Vector (Stroke)_2" fill-rule="evenodd" clip-rule="evenodd" d="M13.5448 3.73955C13.0285 3.73955 12.615 4.19262 12.615 4.7414V31.1024C12.615 31.6586 13.0355 32.1042 13.5448 32.1042H18.4552C18.9336 32.1042 19.3658 31.6875 19.385 31.0829V4.7414C19.385 4.18513 18.9645 3.73955 18.4552 3.73955H13.5448ZM10 4.7414C10 2.66035 11.5622 0.921875 13.5448 0.921875H18.4552C20.3866 0.921875 22 2.60522 22 4.7414V31.1024C22 31.1071 22 31.1118 21.9999 31.1165C21.9999 31.1227 21.9998 31.1289 21.9996 31.1351C21.9547 33.2157 20.414 34.9219 18.4552 34.9219H13.5448C11.6134 34.9219 10 33.2385 10 31.1024V4.7414Z" fill="#40AE97"/>
<path id="Vector (Stroke)_3" fill-rule="evenodd" clip-rule="evenodd" d="M3.70718 14.5369C3.16729 14.5369 2.73481 14.9574 2.73481 15.4667V20.3771C2.73481 20.8933 3.17455 21.3069 3.70718 21.3069H29.2928C29.8327 21.3069 30.2652 20.8864 30.2652 20.3771V15.4667C30.2652 14.9574 29.8327 14.5369 29.2928 14.5369H3.70718ZM0 15.4667C0 13.5353 1.63382 11.9219 3.70718 11.9219H29.2928C31.3662 11.9219 33 13.5353 33 15.4667V20.3771C33 22.3084 31.3662 23.9219 29.2928 23.9219H3.70718C1.68733 23.9219 0 22.3596 0 20.3771V15.4667Z" fill="#40AE97"/>
</g>
</g>
</svg>
