<svg width="180" height="50" viewBox="0 0 180 50" fill="none" xmlns="http://www.w3.org/2000/svg">
<g id="Group">
<g id="Group_2">
<g id="Group_3">
<path id="Vector" d="M78.4618 33.0032C77.3827 32.3737 76.5283 31.5194 75.8988 30.4403C75.2693 29.3611 74.9546 28.1921 74.9546 26.8881V26.4385H79.7657V26.8881C79.7657 27.5176 79.9906 28.0572 80.4402 28.5068C80.8898 28.9564 81.4294 29.1813 82.0589 29.1813H102.428C103.057 29.1813 103.597 28.9564 104.046 28.5068C104.496 28.0572 104.721 27.5176 104.721 26.8881V21.6723C104.721 21.0428 104.496 20.5032 104.046 20.0536C103.597 19.604 103.057 19.3791 102.428 19.3791H82.0589C80.755 19.3791 79.5859 19.0644 78.5067 18.4349C77.4276 17.8054 76.5733 16.9511 75.9438 15.872C75.3143 14.7928 74.9996 13.6238 74.9996 12.3198V7.104C74.9996 5.80004 75.3143 4.63099 75.9438 3.55185C76.5733 2.47272 77.4276 1.61841 78.5067 0.988915C79.5859 0.359421 80.755 0.0446777 82.0589 0.0446777H102.428C103.732 0.0446777 104.946 0.359421 106.025 0.988915C107.104 1.61841 107.958 2.47272 108.588 3.55185C109.217 4.63099 109.532 5.80004 109.532 7.104V7.55364H104.676V7.104C104.676 6.4745 104.451 5.93494 104.001 5.4853C103.552 5.03566 103.012 4.81084 102.383 4.81084H82.0139C81.3844 4.81084 80.8449 5.03566 80.3952 5.4853C79.9456 5.93494 79.7208 6.4745 79.7208 7.104V12.3198C79.7208 12.9493 79.9456 13.4889 80.3952 13.9385C80.8449 14.3881 81.3844 14.613 82.0139 14.613H102.383C103.687 14.613 104.901 14.9277 105.98 15.5572C107.059 16.1867 107.913 17.041 108.543 18.1201C109.172 19.1993 109.487 20.3683 109.487 21.6723V26.8881C109.487 28.1921 109.172 29.3611 108.543 30.4403C107.913 31.5194 107.059 32.3737 105.98 33.0032C104.901 33.6327 103.687 33.9474 102.383 33.9474H82.0139C80.71 33.9474 79.5409 33.6327 78.4618 33.0032Z" fill="#E3E3E3"/>
<path id="Vector_2" d="M113.668 33.9477V7.05933C113.668 5.75538 113.983 4.58632 114.613 3.50718C115.242 2.42805 116.097 1.57374 117.176 0.944244C118.255 0.31475 119.424 0 120.728 0H139.793V4.81113H120.728C120.098 4.81113 119.559 5.03595 119.109 5.48559C118.659 5.93523 118.435 6.47479 118.435 7.10428V33.9927H113.668V33.9477Z" fill="#E3E3E3"/>
<path id="Vector_3" d="M144.604 47.4369V0H172.122C173.426 0 174.595 0.31475 175.674 0.944244C176.753 1.57374 177.608 2.42805 178.237 3.50718C178.867 4.58632 179.181 5.75538 179.181 7.05933V26.8434C179.181 28.1474 178.867 29.3164 178.237 30.3956C177.608 31.4747 176.753 32.329 175.674 32.9585C174.595 33.588 173.426 33.9027 172.122 33.9027H149.415V47.3469H144.604V47.4369ZM151.753 29.1815H172.122C172.751 29.1815 173.291 28.9567 173.741 28.5071C174.19 28.0574 174.415 27.5179 174.415 26.8884V7.10428C174.415 6.47479 174.19 5.93523 173.741 5.48559C173.291 5.03595 172.751 4.81113 172.122 4.81113H151.753C151.124 4.81113 150.584 5.03595 150.135 5.48559C149.685 5.93523 149.415 6.47479 149.415 7.10428V26.8884C149.415 27.5179 149.64 28.0574 150.135 28.5071C150.584 28.9567 151.124 29.1815 151.753 29.1815Z" fill="#E3E3E3"/>
</g>
<g id="Group_4">
<path id="Vector_4" d="M76.798 49.9097V49.0104H80.7548C80.8897 49.0104 80.9796 48.9654 81.0696 48.8755C81.1595 48.7856 81.2044 48.6957 81.2044 48.5608V47.3917H76.9778C76.753 47.3917 76.5282 47.3467 76.3034 47.2118C76.1235 47.077 75.9437 46.9421 75.8088 46.7172C75.6739 46.5374 75.6289 46.3126 75.6289 46.0428V42.3558C75.6289 42.1309 75.6739 41.9061 75.8088 41.6813C75.9437 41.5014 76.0785 41.3216 76.3034 41.1867C76.4832 41.0518 76.708 41.0068 76.9778 41.0068H80.7548C80.9796 41.0068 81.2044 41.0518 81.4293 41.1867C81.6091 41.3216 81.789 41.4565 81.9239 41.6813C82.0588 41.9061 82.1037 42.086 82.1037 42.3558V48.5158C82.1037 48.7406 82.0588 48.9654 81.9239 49.1903C81.789 49.4151 81.6541 49.55 81.4293 49.6849C81.2494 49.8197 81.0246 49.8647 80.7548 49.8647H76.798V49.9097ZM76.9329 46.5374H80.7098C80.8447 46.5374 80.9347 46.4924 81.0246 46.4025C81.1145 46.3126 81.1595 46.2226 81.1595 46.0877V42.4007C81.1595 42.2658 81.1145 42.1759 81.0246 42.086C80.9347 41.996 80.8447 41.9511 80.7098 41.9511H76.9329C76.798 41.9511 76.708 41.996 76.6181 42.086C76.5282 42.1759 76.4832 42.2658 76.4832 42.4007V46.0877C76.4832 46.2226 76.5282 46.3126 76.6181 46.4025C76.708 46.4924 76.798 46.5374 76.9329 46.5374Z" fill="#E3E3E3"/>
<path id="Vector_5" d="M89.3877 47.4371V42.4461C89.3877 42.2213 89.4327 41.9964 89.5675 41.7716C89.7024 41.5468 89.8373 41.4119 90.0622 41.277C90.242 41.1421 90.4668 41.0972 90.7366 41.0972H94.2888V41.9964H90.7366C90.6017 41.9964 90.5118 42.0414 90.4219 42.1313C90.3319 42.2213 90.287 42.3112 90.287 42.4461V47.4371H89.3877Z" fill="#E3E3E3"/>
<path id="Vector_6" d="M101.978 47.2565C101.798 47.1216 101.618 46.9867 101.483 46.7619C101.348 46.5371 101.303 46.3573 101.303 46.0875V42.4004C101.303 42.1756 101.348 41.9508 101.483 41.726C101.618 41.5012 101.753 41.3663 101.978 41.2314C102.158 41.0965 102.382 41.0515 102.652 41.0515H106.429C106.654 41.0515 106.879 41.0965 107.104 41.2314C107.283 41.3663 107.463 41.5012 107.598 41.726C107.733 41.9058 107.778 42.1306 107.778 42.4004V46.0875C107.778 46.3123 107.733 46.5371 107.598 46.7619C107.463 46.9418 107.328 47.1216 107.104 47.2565C106.924 47.3914 106.699 47.4364 106.429 47.4364H102.652C102.427 47.4364 102.203 47.3914 101.978 47.2565ZM102.652 46.5371H106.429C106.564 46.5371 106.654 46.4922 106.744 46.4022C106.834 46.3123 106.879 46.2224 106.879 46.0875V42.4004C106.879 42.2655 106.834 42.1756 106.744 42.0857C106.654 41.9958 106.564 41.9508 106.429 41.9508H102.652C102.517 41.9508 102.427 41.9958 102.337 42.0857C102.247 42.1756 102.203 42.2655 102.203 42.4004V46.0875C102.203 46.2224 102.247 46.3123 102.337 46.4022C102.427 46.4922 102.517 46.5371 102.652 46.5371Z" fill="#E3E3E3"/>
<path id="Vector_7" d="M115.737 47.2572C115.558 47.1223 115.378 46.9874 115.243 46.7626C115.108 46.5828 115.063 46.3579 115.063 46.0882V41.0972H115.962V46.0882C115.962 46.2231 116.007 46.313 116.097 46.4029C116.187 46.4928 116.277 46.5378 116.412 46.5378H120.189C120.324 46.5378 120.414 46.4928 120.504 46.4029C120.594 46.313 120.639 46.2231 120.639 46.0882V41.0972H121.538V46.0882C121.538 46.313 121.493 46.5378 121.358 46.7626C121.223 46.9874 121.088 47.1223 120.863 47.2572C120.683 47.3921 120.459 47.4371 120.189 47.4371H116.412C116.142 47.4371 115.962 47.3921 115.737 47.2572Z" fill="#E3E3E3"/>
<path id="Vector_8" d="M128.867 49.9101V41.0972H133.993C134.217 41.0972 134.442 41.1421 134.667 41.277C134.847 41.4119 135.027 41.5468 135.162 41.7716C135.297 41.9515 135.342 42.1763 135.342 42.4461V46.1331C135.342 46.3579 135.297 46.5828 135.162 46.8076C135.027 46.9874 134.892 47.1673 134.667 47.3022C134.487 47.4371 134.262 47.482 133.993 47.482H129.766V50H128.867V49.9101ZM130.171 46.5378H133.948C134.083 46.5378 134.172 46.4928 134.262 46.4029C134.352 46.313 134.397 46.2231 134.397 46.0882V42.4011C134.397 42.2662 134.352 42.1763 134.262 42.0864C134.172 41.9965 134.083 41.9515 133.948 41.9515H130.171C130.036 41.9515 129.946 41.9965 129.856 42.0864C129.766 42.1763 129.721 42.2662 129.721 42.4011V46.0882C129.721 46.2231 129.766 46.313 129.856 46.4029C129.991 46.4928 130.081 46.5378 130.171 46.5378Z" fill="#E3E3E3"/>
</g>
</g>
<g id="Group_5">
<path id="Vector (Stroke)" fill-rule="evenodd" clip-rule="evenodd" d="M8.67801 4.67614C6.15341 4.67614 4.09168 6.73786 4.09168 9.26246V40.8271C4.09168 43.3517 6.15341 45.4134 8.67801 45.4134H40.2427C42.7412 45.4134 44.7914 43.3751 44.8291 40.8135V9.26246C44.8291 6.73786 42.7673 4.67614 40.2427 4.67614H8.67801ZM0.0449219 9.26246C0.0449219 4.50291 3.91844 0.629395 8.67801 0.629395H40.2427C45.0023 0.629395 48.8758 4.50292 48.8758 9.26246V40.8396L48.8757 40.8521C48.8174 45.5693 45.0247 49.4602 40.2427 49.4602H8.67801C3.91844 49.4602 0.0449219 45.5866 0.0449219 40.8271V9.26246Z" fill="#E3E3E3" fill-opacity="0.54"/>
<path id="Vector (Stroke)_2" fill-rule="evenodd" clip-rule="evenodd" d="M20.6838 4.67614C19.885 4.67614 19.245 5.32684 19.245 6.11499V43.9746C19.245 44.7735 19.8957 45.4134 20.6838 45.4134H28.2828C29.0231 45.4134 29.692 44.815 29.7216 43.9466V6.11499C29.7216 5.31608 29.0709 4.67614 28.2828 4.67614H20.6838ZM15.1982 6.11499C15.1982 3.12618 17.6158 0.629395 20.6838 0.629395H28.2828C31.2716 0.629395 33.7684 3.04701 33.7684 6.11499V43.9746C33.7684 43.9813 33.7683 43.9881 33.7683 43.9949C33.7682 44.0038 33.768 44.0127 33.7678 44.0216C33.6983 47.0098 31.314 49.4602 28.2828 49.4602H20.6838C17.695 49.4602 15.1982 47.0425 15.1982 43.9746V6.11499Z" fill="#E3E3E3"/>
<path id="Vector (Stroke)_3" fill-rule="evenodd" clip-rule="evenodd" d="M5.48561 19.7391C4.68671 19.7391 4.04676 20.3898 4.04676 21.178V28.7769C4.04676 29.5758 4.69746 30.2157 5.48561 30.2157H43.3453C44.1442 30.2157 44.7841 29.565 44.7841 28.7769V21.178C44.7841 20.3898 44.1442 19.7391 43.3453 19.7391H5.48561ZM0 21.178C0 18.1892 2.4176 15.6924 5.48561 15.6924H43.3453C46.4133 15.6924 48.8309 18.1892 48.8309 21.178V28.7769C48.8309 31.7657 46.4133 34.2625 43.3453 34.2625H5.48561C2.49678 34.2625 0 31.8449 0 28.7769V21.178Z" fill="#E3E3E3"/>
</g>
</g>
</svg>
