<svg width="139" height="97" viewBox="0 0 139 97" fill="none" xmlns="http://www.w3.org/2000/svg">
<g id="icon:place">
<path id="Vector 33" d="M4 0.65H135C136.85 0.65 138.35 2.14985 138.35 4V72.931C138.35 74.7812 136.85 76.281 135 76.281H86.8447C86.0363 76.281 85.2721 76.65 84.7694 77.2831L70.0978 95.7594C70.0356 95.8378 69.9155 95.8344 69.8578 95.7526L56.9057 77.4029C56.4092 76.6994 55.6018 76.281 54.7407 76.281H4C2.14985 76.281 0.65 74.7812 0.65 72.931V4C0.65 2.14984 2.14985 0.65 4 0.65Z" fill="white" stroke="black" stroke-width="1.3"/>
<g id="logo">
<g id="Group">
<g id="Group_2">
<path id="Vector" d="M61.5699 42.7017C60.8332 42.2873 60.2501 41.7247 59.8203 41.0142C59.3906 40.3036 59.1758 39.5338 59.1758 38.6752V38.3792H62.46V38.6752C62.46 39.0897 62.6135 39.445 62.9204 39.7411C63.2273 40.0371 63.5957 40.1852 64.0254 40.1852H77.9295C78.3593 40.1852 78.7276 40.0371 79.0345 39.7411C79.3415 39.445 79.4949 39.0897 79.4949 38.6752V35.2409C79.4949 34.8264 79.3415 34.4711 79.0345 34.175C78.7276 33.8789 78.3593 33.7309 77.9295 33.7309H64.0254C63.1353 33.7309 62.3372 33.5237 61.6006 33.1092C60.8639 32.6947 60.2808 32.1321 59.851 31.4216C59.4213 30.711 59.2065 29.9412 59.2065 29.0826V25.6483C59.2065 24.7897 59.4213 24.0199 59.851 23.3093C60.2808 22.5988 60.8639 22.0362 61.6006 21.6217C62.3372 21.2072 63.1353 21 64.0254 21H77.9295C78.8197 21 79.6484 21.2072 80.385 21.6217C81.1217 22.0362 81.7049 22.5988 82.1346 23.3093C82.5643 24.0199 82.7791 24.7897 82.7791 25.6483V25.9443H79.4642V25.6483C79.4642 25.2338 79.3108 24.8785 79.0038 24.5824C78.6969 24.2863 78.3286 24.1383 77.8989 24.1383H63.9947C63.565 24.1383 63.1966 24.2863 62.8897 24.5824C62.5828 24.8785 62.4293 25.2338 62.4293 25.6483V29.0826C62.4293 29.4971 62.5828 29.8524 62.8897 30.1485C63.1966 30.4446 63.565 30.5926 63.9947 30.5926H77.8989C78.789 30.5926 79.6177 30.7998 80.3543 31.2143C81.091 31.6288 81.6742 32.1913 82.1039 32.9019C82.5336 33.6125 82.7484 34.3823 82.7484 35.2409V38.6752C82.7484 39.5338 82.5336 40.3036 82.1039 41.0142C81.6742 41.7247 81.091 42.2873 80.3543 42.7017C79.6177 43.1162 78.789 43.3235 77.8989 43.3235H63.9947C63.1046 43.3235 62.3065 43.1162 61.5699 42.7017Z" fill="#40AE97"/>
<path id="Vector_2" d="M85.7305 43.294V25.636C85.7305 24.7796 85.9438 24.0119 86.3703 23.3032C86.7969 22.5945 87.3758 22.0335 88.1071 21.6201C88.8383 21.2067 89.6305 21 90.5141 21H103.433V24.1595H90.5141C90.0875 24.1595 89.7219 24.3072 89.4172 24.6025C89.1125 24.8978 88.9602 25.2521 88.9602 25.6655V43.3235H85.7305V43.294Z" fill="#40AE97"/>
<path id="Vector_3" d="M106.383 52.0588V21H124.385C125.238 21 126.002 21.2061 126.708 21.6182C127.414 22.0304 127.973 22.5897 128.385 23.2963C128.797 24.0028 129.003 24.7683 129.003 25.622V38.5754C129.003 39.4292 128.797 40.1946 128.385 40.9012C127.973 41.6077 127.414 42.1671 126.708 42.5792C126.002 42.9914 125.238 43.1975 124.385 43.1975H109.53V51.9999H106.383V52.0588ZM111.06 40.1063H124.385C124.796 40.1063 125.149 39.9591 125.444 39.6647C125.738 39.3703 125.885 39.017 125.885 38.6049V25.6515C125.885 25.2393 125.738 24.886 125.444 24.5916C125.149 24.2972 124.796 24.15 124.385 24.15H111.06C110.648 24.15 110.295 24.2972 110.001 24.5916C109.707 24.886 109.53 25.2393 109.53 25.6515V38.6049C109.53 39.017 109.677 39.3703 110.001 39.6647C110.295 39.9591 110.648 40.1063 111.06 40.1063Z" fill="#40AE97"/>
</g>
<g id="Group_3">
<path id="Vector_4" d="M60.8704 54V53.4118H63.2745C63.3564 53.4118 63.4111 53.3824 63.4657 53.3236C63.5204 53.2647 63.5477 53.2059 63.5477 53.1177V52.353H60.9797C60.8431 52.353 60.7065 52.3236 60.5699 52.2353C60.4607 52.1471 60.3514 52.0589 60.2694 51.9118C60.1875 51.7942 60.1602 51.6471 60.1602 51.4706V49.0589C60.1602 48.9118 60.1875 48.7647 60.2694 48.6177C60.3514 48.5 60.4333 48.3824 60.5699 48.2942C60.6792 48.2059 60.8158 48.1765 60.9797 48.1765H63.2745C63.4111 48.1765 63.5477 48.2059 63.6843 48.2942C63.7935 48.3824 63.9028 48.4706 63.9848 48.6177C64.0667 48.7647 64.094 48.8824 64.094 49.0589V53.0883C64.094 53.2353 64.0667 53.3824 63.9848 53.5294C63.9028 53.6765 63.8209 53.7647 63.6843 53.853C63.575 53.9412 63.4384 53.9706 63.2745 53.9706H60.8704V54ZM60.9524 51.7942H63.2472C63.3291 51.7942 63.3838 51.7647 63.4384 51.7059C63.493 51.6471 63.5204 51.5883 63.5204 51.5V49.0883C63.5204 49 63.493 48.9412 63.4384 48.8824C63.3838 48.8236 63.3291 48.7942 63.2472 48.7942H60.9524C60.8704 48.7942 60.8158 48.8236 60.7612 48.8824C60.7065 48.9412 60.6792 49 60.6792 49.0883V51.5C60.6792 51.5883 60.7065 51.6471 60.7612 51.7059C60.8158 51.7647 60.8704 51.7942 60.9524 51.7942Z" fill="#40AE97"/>
<path id="Vector_5" d="M69.0117 52.0589V49.0025C69.0117 48.8649 69.0478 48.7272 69.1561 48.5895C69.2644 48.4519 69.3726 48.3693 69.5531 48.2866C69.6974 48.204 69.8779 48.1765 70.0944 48.1765H72.9456V48.7272H70.0944C69.9862 48.7272 69.914 48.7547 69.8418 48.8098C69.7696 48.8649 69.7335 48.9199 69.7335 49.0025V52.0589H69.0117Z" fill="#40AE97"/>
<path id="Vector_6" d="M77.3911 51.9495C77.2545 51.8675 77.1179 51.7855 77.0155 51.6488C76.9131 51.5121 76.8789 51.4027 76.8789 51.2386V48.9967C76.8789 48.86 76.9131 48.7233 77.0155 48.5866C77.1179 48.4499 77.2204 48.3679 77.3911 48.2859C77.5277 48.2039 77.6985 48.1765 77.9034 48.1765H80.7718C80.9426 48.1765 81.1133 48.2039 81.284 48.2859C81.4206 48.3679 81.5572 48.4499 81.6597 48.5866C81.7621 48.696 81.7963 48.8327 81.7963 48.9967V51.2386C81.7963 51.3753 81.7621 51.5121 81.6597 51.6488C81.5572 51.7581 81.4548 51.8675 81.284 51.9495C81.1475 52.0315 80.9767 52.0589 80.7718 52.0589H77.9034C77.7326 52.0589 77.5619 52.0315 77.3911 51.9495ZM77.9034 51.5121H80.7718C80.8743 51.5121 80.9426 51.4847 81.0109 51.43C81.0792 51.3754 81.1133 51.3207 81.1133 51.2386V48.9967C81.1133 48.9147 81.0792 48.86 81.0109 48.8053C80.9426 48.7507 80.8743 48.7233 80.7718 48.7233H77.9034C77.8009 48.7233 77.7326 48.7507 77.6643 48.8053C77.596 48.86 77.5619 48.9147 77.5619 48.9967V51.2386C77.5619 51.3207 77.596 51.3754 77.6643 51.43C77.7326 51.4847 77.8009 51.5121 77.9034 51.5121Z" fill="#40AE97"/>
<path id="Vector_7" d="M87.1246 51.9487C87.0153 51.8661 86.9061 51.7835 86.8241 51.6458C86.7422 51.5357 86.7148 51.398 86.7148 51.2328V48.1765H87.2612V51.2328C87.2612 51.3154 87.2885 51.3705 87.3432 51.4256C87.3978 51.4806 87.4524 51.5082 87.5344 51.5082H89.8292C89.9111 51.5082 89.9658 51.4806 90.0204 51.4256C90.075 51.3705 90.1024 51.3154 90.1024 51.2328V48.1765H90.6487V51.2328C90.6487 51.3705 90.6214 51.5082 90.5395 51.6458C90.4575 51.7835 90.3755 51.8661 90.239 51.9487C90.1297 52.0313 89.9931 52.0589 89.8292 52.0589H87.5344C87.3705 52.0589 87.2612 52.0313 87.1246 51.9487Z" fill="#40AE97"/>
<path id="Vector_8" d="M95.5664 53.9412V48.1765H99.4593C99.6301 48.1765 99.8008 48.2059 99.9715 48.2942C100.108 48.3824 100.245 48.4706 100.347 48.6177C100.45 48.7353 100.484 48.8824 100.484 49.0589V51.4706C100.484 51.6177 100.45 51.7647 100.347 51.9118C100.245 52.0294 100.142 52.1471 99.9715 52.2353C99.835 52.3236 99.6642 52.353 99.4593 52.353H96.2494V54H95.5664V53.9412ZM96.5567 51.7353H99.4252C99.5276 51.7353 99.5959 51.7059 99.6642 51.6471C99.7325 51.5883 99.7667 51.5294 99.7667 51.4412V49.0295C99.7667 48.9412 99.7325 48.8824 99.6642 48.8236C99.5959 48.7648 99.5276 48.7353 99.4252 48.7353H96.5567C96.4543 48.7353 96.386 48.7648 96.3177 48.8236C96.2494 48.8824 96.2152 48.9412 96.2152 49.0295V51.4412C96.2152 51.5294 96.2494 51.5883 96.3177 51.6471C96.4201 51.7059 96.4884 51.7353 96.5567 51.7353Z" fill="#40AE97"/>
</g>
</g>
<g id="Group_4">
<path id="Vector (Stroke)" fill-rule="evenodd" clip-rule="evenodd" d="M15.7378 23.7348C14.0599 23.7348 12.6896 25.1281 12.6896 26.8342V48.1657C12.6896 49.8718 14.0599 51.2651 15.7378 51.2651H36.7168C38.3773 51.2651 39.74 49.8876 39.765 48.1565V26.8342C39.765 25.1281 38.3947 23.7348 36.7168 23.7348H15.7378ZM10 26.8342C10 23.6177 12.5745 21 15.7378 21H36.7168C39.8801 21 42.4546 23.6177 42.4546 26.8342V48.1741L42.4545 48.1826C42.4158 51.3705 39.8951 53.9999 36.7168 53.9999H15.7378C12.5745 53.9999 10 51.3822 10 48.1657V26.8342Z" fill="black"/>
<path id="Vector (Stroke)_2" fill-rule="evenodd" clip-rule="evenodd" d="M23.3221 23.7348C22.8144 23.7348 22.4077 24.1745 22.4077 24.7072V50.2928C22.4077 50.8327 22.8213 51.2651 23.3221 51.2651H28.1514C28.6219 51.2651 29.047 50.8607 29.0658 50.2739V24.7072C29.0658 24.1673 28.6523 23.7348 28.1514 23.7348H23.3221ZM19.8359 24.7072C19.8359 22.6873 21.3724 21 23.3221 21H28.1514C30.0509 21 31.6376 22.6338 31.6376 24.7072V50.2928C31.6376 50.2973 31.6376 50.3019 31.6375 50.3065C31.6375 50.3125 31.6374 50.3185 31.6373 50.3246C31.5931 52.344 30.0778 53.9999 28.1514 53.9999H23.3221C21.4227 53.9999 19.8359 52.3661 19.8359 50.2928V24.7072Z" fill="#40AE97"/>
<path id="Vector (Stroke)_3" fill-rule="evenodd" clip-rule="evenodd" d="M13.6459 34.2146C13.1149 34.2146 12.6896 34.6227 12.6896 35.117V39.883C12.6896 40.3841 13.1221 40.7855 13.6459 40.7855H38.8087C39.3397 40.7855 39.765 40.3774 39.765 39.883V35.117C39.765 34.6227 39.3397 34.2146 38.8087 34.2146H13.6459ZM10 35.117C10 33.2425 11.6068 31.6765 13.6459 31.6765H38.8087C40.8478 31.6765 42.4546 33.2425 42.4546 35.117V39.883C42.4546 41.7576 40.8478 43.3236 38.8087 43.3236H13.6459C11.6594 43.3236 10 41.8072 10 39.883V35.117Z" fill="#40AE97"/>
</g>
</g>
</g>
</svg>
