<svg width="16" height="21" viewBox="0 0 16 21" fill="none" xmlns="http://www.w3.org/2000/svg">
<g id="Group">
<path id="Vector" fill-rule="evenodd" clip-rule="evenodd" d="M7.99986 19.9988L8.74725 19.1567C9.59533 18.1854 10.3581 17.2639 11.0368 16.3874L11.5971 15.6483C13.9364 12.4964 15.1066 9.99483 15.1066 8.14588C15.1066 4.19924 11.9252 1 7.99986 1C4.07454 1 0.893066 4.19924 0.893066 8.14588C0.893066 9.99483 2.06332 12.4964 4.40264 15.6483L4.96289 16.3874C5.93111 17.628 6.94411 18.8318 7.99986 19.9988Z" stroke="white" stroke-linecap="round" stroke-linejoin="round"/>
<path id="Vector_2" d="M7.99778 11.0683C9.63319 11.0683 10.9589 9.74256 10.9589 8.10716C10.9589 6.47175 9.63319 5.146 7.99778 5.146C6.36238 5.146 5.03662 6.47175 5.03662 8.10716C5.03662 9.74256 6.36238 11.0683 7.99778 11.0683Z" stroke="white" stroke-linecap="round" stroke-linejoin="round"/>
</g>
</svg>
