<svg width="19" height="24" viewBox="0 0 19 24" fill="none" xmlns="http://www.w3.org/2000/svg">
<path d="M0.067627 22.3725V2.02854C0.0680505 1.774 0.136927 1.52426 0.267042 1.30549C0.397157 1.08672 0.58372 0.906979 0.807178 0.785092C1.03064 0.663206 1.28276 0.603667 1.53714 0.612713C1.79152 0.621759 2.03878 0.699056 2.25302 0.836507L18.0786 11.0057C18.279 11.134 18.4439 11.3108 18.5581 11.5196C18.6723 11.7284 18.7322 11.9625 18.7322 12.2005C18.7322 12.4385 18.6723 12.6727 18.5581 12.8815C18.4439 13.0903 18.279 13.267 18.0786 13.3954L2.25302 23.5674C2.03878 23.7048 1.79152 23.7821 1.53714 23.7912C1.28276 23.8002 1.03064 23.7407 0.807178 23.6188C0.58372 23.4969 0.397157 23.3172 0.267042 23.0984C0.136927 22.8796 0.0680505 22.6299 0.067627 22.3754V22.3725Z" fill="#D9D9D9"/>
</svg>
