<svg width="22" height="20" viewBox="0 0 22 20" fill="none" xmlns="http://www.w3.org/2000/svg">
<g id="Group 2318">
<path id="Vector" d="M7.82069 5.21158C8.00519 5.21662 8.20984 5.22671 8.40442 5.6582C8.53346 5.94552 8.75022 6.4748 8.92765 6.9063C9.06577 7.24201 9.17868 7.51825 9.20691 7.5747C9.27143 7.70375 9.31176 7.85195 9.22708 8.02636L9.19885 8.08483C9.14106 8.22029 9.06286 8.34608 8.96697 8.45785C8.91824 8.51441 8.87018 8.57154 8.8228 8.62924C8.73711 8.73409 8.65142 8.83692 8.57883 8.90951C8.44878 9.03855 8.31469 9.17768 8.4639 9.43576C8.61412 9.69385 9.13735 10.5427 9.91061 11.2273C10.4766 11.7368 11.1254 12.146 11.8291 12.437C11.8997 12.4673 11.9572 12.4925 12.0005 12.5137C12.2596 12.6427 12.4139 12.6225 12.5631 12.4491C12.7133 12.2747 13.2113 11.694 13.3867 11.4359C13.5561 11.1779 13.7295 11.2182 13.9694 11.3069C14.2094 11.3966 15.4857 12.0227 15.7448 12.1507L15.889 12.2213C16.0694 12.307 16.1914 12.3665 16.2439 12.4532C16.3084 12.5631 16.3084 13.0782 16.0946 13.6851C15.8749 14.29 14.8173 14.8707 14.3384 14.9151L14.2023 14.9312C13.7628 14.9837 13.2063 15.0522 11.2222 14.2709C8.77643 13.3091 7.16237 10.9238 6.83673 10.4409C6.81935 10.4151 6.80154 10.3895 6.7833 10.3643L6.77725 10.3562C6.62905 10.1576 5.7207 8.94277 5.7207 7.68863C5.7207 6.48892 6.31249 5.86386 6.58167 5.57956L6.62905 5.52915C6.71618 5.43073 6.82264 5.35129 6.94179 5.29579C7.06095 5.24029 7.19025 5.20991 7.32166 5.20654C7.49607 5.20654 7.67149 5.20654 7.82069 5.21158Z" fill="#40AE97"/>
<path id="Vector_2" fill-rule="evenodd" clip-rule="evenodd" d="M1.06175 19.4887C1.04276 19.5571 1.04212 19.6292 1.05992 19.6979C1.07771 19.7666 1.11331 19.8293 1.16311 19.8798C1.21291 19.9304 1.27515 19.9668 1.34356 19.9856C1.41197 20.0044 1.48412 20.0048 1.55273 19.9868L6.19731 18.773C7.67091 19.5711 9.32025 19.9893 10.9961 19.9898H11.0002C16.5309 19.9898 21.0394 15.5065 21.0394 9.99694C21.0429 8.68284 20.785 7.38116 20.2806 6.1677C19.7763 4.95423 19.0356 3.85322 18.1016 2.92875C17.1695 1.99648 16.0622 1.25778 14.8434 0.755154C13.6246 0.252528 12.3185 -0.00409751 11.0002 4.94686e-05C5.46942 4.94686e-05 0.960938 4.48232 0.960938 9.9919C0.960938 11.7451 1.42267 13.467 2.30179 14.9863L1.06175 19.4887ZM3.76059 15.3876C3.8139 15.1941 3.82816 14.9919 3.80254 14.7929C3.77692 14.5938 3.71194 14.4019 3.61138 14.2282C2.86548 12.941 2.47283 11.4796 2.47317 9.9919C2.47317 5.32413 6.29712 1.51229 11.0002 1.51229C13.2887 1.51229 15.424 2.39644 17.035 4.00042C17.8277 4.7844 18.4564 5.71842 18.8843 6.74798C19.3122 7.77754 19.5307 8.88201 19.5272 9.99694C19.5272 14.6647 15.7032 18.4776 11.0002 18.4776H10.9951C9.5713 18.4768 8.1701 18.1213 6.91814 17.4432C6.5807 17.2605 6.18643 17.2129 5.81522 17.3101L3.03068 18.037L3.76059 15.3876Z" fill="#40AE97"/>
</g>
</svg>
