<svg width="24" height="20" viewBox="0 0 24 20" fill="none" xmlns="http://www.w3.org/2000/svg">
<path id="YouTube" d="M15.3155 8.54531L10.9598 6.03731C10.704 5.89008 10.414 5.81269 10.1189 5.8129C9.82385 5.81312 9.534 5.89094 9.27848 6.03855C9.02295 6.18616 8.81074 6.39838 8.66314 6.6539C8.51553 6.90943 8.43771 7.19928 8.4375 7.49438V12.508C8.43394 13.1089 8.75456 13.6646 9.27588 13.9615C9.53147 14.1108 9.82208 14.1897 10.1181 14.1901C10.4141 14.1905 10.7049 14.1125 10.9609 13.9639L15.3155 11.4559C15.5713 11.3088 15.7838 11.0969 15.9316 10.8415C16.0794 10.5861 16.1572 10.2963 16.1572 10.0012C16.1572 9.70612 16.0794 9.41627 15.9316 9.16087C15.7838 8.90548 15.5713 8.69356 15.3155 8.5465V8.54531ZM14.7218 10.4239L10.3684 12.9331C10.2929 12.9774 10.2071 13.0007 10.1196 13.0007C10.0321 13.0007 9.94625 12.9774 9.87081 12.9331C9.79532 12.8904 9.73269 12.8282 9.68945 12.753C9.64621 12.6778 9.62395 12.5924 9.625 12.5056V7.49438C9.62417 7.40784 9.64652 7.32266 9.68975 7.24769C9.73298 7.17272 9.7955 7.11069 9.87081 7.06806C9.9456 7.02255 10.0315 6.99847 10.119 6.99847C10.2065 6.99847 10.2924 7.02255 10.3672 7.06806L14.7218 9.57725C14.7968 9.61966 14.8593 9.68126 14.9028 9.75575C14.9463 9.83024 14.9692 9.91494 14.9692 10.0012C14.9692 10.0874 14.9463 10.1721 14.9028 10.2466C14.8593 10.3211 14.7968 10.3815 14.7218 10.4239ZM20.3125 0.5H3.6875C2.74296 0.500943 1.83737 0.87658 1.16947 1.54447C0.50158 2.21237 0.125943 3.11796 0.125 4.0625V15.9375C0.125943 16.882 0.50158 17.7876 1.16947 18.4555C1.83737 19.1234 2.74296 19.4991 3.6875 19.5H20.3125C21.257 19.4991 22.1626 19.1234 22.8305 18.4555C23.4984 17.7876 23.8741 16.882 23.875 15.9375V4.0625C23.8741 3.11796 23.4984 2.21237 22.8305 1.54447C22.1626 0.87658 21.257 0.500943 20.3125 0.5ZM22.6875 15.9375C22.6866 16.5671 22.436 17.1706 21.9908 17.6158C21.5456 18.061 20.9421 18.3116 20.3125 18.3125H3.6875C3.0579 18.3116 2.45436 18.061 2.00916 17.6158C1.56397 17.1706 1.31344 16.5671 1.3125 15.9375V4.0625C1.31344 3.4329 1.56397 2.82936 2.00916 2.38416C2.45436 1.93897 3.0579 1.68844 3.6875 1.6875H20.3125C20.9421 1.68844 21.5456 1.93897 21.9908 2.38416C22.436 2.82936 22.6866 3.4329 22.6875 4.0625V15.9375Z" fill="white"/>
</svg>
