<svg width="153" height="192" viewBox="0 0 153 192" fill="none" xmlns="http://www.w3.org/2000/svg">
<g id="Group 2371">
<path id="Vector" d="M151.217 55.0256H107.833C105.276 55.0256 102.823 54.0099 101.015 52.2018C99.2072 50.3938 98.1915 47.9416 98.1915 45.3846V2M151.217 55.0256V180.359C151.217 182.916 150.201 185.368 148.393 187.176C146.585 188.984 144.133 190 141.576 190H11.4223C8.86532 190 6.41309 188.984 4.60504 187.176C2.797 185.368 1.78125 182.916 1.78125 180.359V11.641C1.78125 9.08407 2.797 6.63183 4.60504 4.82379C6.41309 3.01575 8.86532 2 11.4223 2H98.1915M151.217 55.0256L98.1915 2" stroke="white" stroke-opacity="0.24" stroke-width="3" stroke-linecap="round" stroke-linejoin="round"/>
<path id="Vector_2" d="M126.79 98.5789H105.136V141.795M105.136 120.184H119.265M26.2294 141.713V98.4921H40.7729C44.6199 98.4908 48.3098 100.018 51.0309 102.737C53.752 105.456 55.2814 109.145 55.2827 112.992C55.2839 116.839 53.757 120.529 51.0377 123.25C48.3184 125.971 44.6295 127.501 40.7826 127.502H26.2246M65.6805 141.795V98.4102H73.0366C78.7898 98.4102 84.3073 100.696 88.3754 104.764C92.4435 108.832 94.7289 114.349 94.7289 120.102C94.7289 125.856 92.4435 131.373 88.3754 135.441C84.3073 139.509 78.7898 141.795 73.0366 141.795H65.6805Z" stroke="white" stroke-opacity="0.24" stroke-width="3" stroke-linecap="round" stroke-linejoin="round"/>
</g>
</svg>
